<svg width="31" height="20" viewBox="0 0 31 20" fill="none" xmlns="http://www.w3.org/2000/svg">
<path d="M12.5142 8.94026C12.5142 8.94026 15.4475 8.71751 15.4475 5.21414C15.4475 1.70623 13.0475 0 10.0058 0H0V19.5868H10.0058C10.0058 19.5868 16.1156 19.7822 16.1156 13.8044C16.1141 13.8029 16.3808 8.94026 12.5142 8.94026ZM4.40913 3.47913H10.0058C10.0058 3.47913 11.367 3.47913 11.367 5.51569C11.367 7.55528 10.567 7.85076 9.65854 7.85076H4.40913V3.47913ZM9.7221 16.1046H4.40913V10.8692H10.0058C10.0058 10.8692 12.0336 10.842 12.0336 13.5589C12.0336 15.85 10.519 16.0879 9.7221 16.1046ZM24.2611 4.98079C16.8645 4.98079 16.8707 12.5073 16.8707 12.5073C16.8707 12.5073 16.3652 19.9944 24.2611 19.9944C24.2611 19.9944 30.8391 20.3793 30.8391 14.7863H27.4563C27.4563 14.7863 27.5679 16.8941 24.3742 16.8941C24.3742 16.8941 20.9883 17.1244 20.9883 13.4846H30.9461C30.9476 13.4831 32.0452 4.98079 24.2611 4.98079ZM27.2702 10.8692H20.9542C20.9542 10.8692 21.3666 7.85076 24.337 7.85076C27.3075 7.85076 27.2702 10.8692 27.2702 10.8692ZM28.0563 1.15011H20.1232V3.5655H28.0563V1.15011Z" fill="black"/>
</svg>
