<svg width="29" height="23" viewBox="0 0 29 23" fill="none" xmlns="http://www.w3.org/2000/svg">
<path d="M19.512 13.4299C18.3803 13.4299 17.463 14.6197 17.463 16.0823C17.463 17.5478 18.3803 18.7376 19.512 18.7376C20.6436 18.7376 21.5609 17.5478 21.5609 16.0823C21.5593 14.6197 20.6436 13.4299 19.512 13.4299ZM26.6453 6.52551C26.8802 5.98737 26.8896 2.92955 25.6445 0C25.6445 0 22.7902 0.293398 18.4717 3.06667C17.5655 2.83077 16.032 2.71577 14.5016 2.71577C12.968 2.71577 11.4361 2.83077 10.5298 3.06667C6.20978 0.293398 3.35549 0 3.35549 0C2.11196 2.92955 2.12457 5.98737 2.35625 6.52551C0.893641 8.01167 0 9.79712 0 12.2328C0 22.8275 9.39821 22.9971 11.7686 22.9971L14.5016 23L17.2314 22.9971C19.6049 22.9971 29 22.8275 29 12.2328C29 9.79712 28.1079 8.01167 26.6453 6.52551ZM14.5441 21.6952H14.4559C8.51245 21.6952 3.8819 21.0332 3.8819 15.6282C3.8819 14.3322 4.37049 13.1321 5.53206 12.1354C7.46592 10.4738 10.741 11.3526 14.4559 11.3526H14.5441C18.259 11.3526 21.5357 10.4738 23.4711 12.1354C24.6295 13.1321 25.1181 14.3322 25.1181 15.6282C25.1181 21.0332 20.4891 21.6952 14.5441 21.6952ZM9.48962 13.4299C8.35799 13.4299 7.44071 14.6197 7.44071 16.0823C7.44071 17.5478 8.35799 18.7376 9.48962 18.7376C10.6228 18.7376 11.5401 17.5478 11.5401 16.0823C11.5401 14.6197 10.6228 13.4299 9.48962 13.4299Z" fill="black"/>
</svg>
