<svg width="31" height="29" viewBox="0 0 31 29" fill="none" xmlns="http://www.w3.org/2000/svg">
<path d="M7.24999 3.64999C7.24999 5.29609 6.07849 6.71279 3.94834 6.71279C1.94359 6.71279 0.649994 5.37669 0.649994 3.73059C0.649994 2.04109 1.90399 0.549988 3.94999 0.549988C5.99599 0.549988 7.21039 1.96049 7.24999 3.64999ZM0.649994 28.45V8.29999H7.24999V28.45H0.649994ZM10.55 15.1882C10.55 12.7934 10.4658 10.7924 10.3817 9.06414H16.3118L16.6055 11.7348H16.7309C17.5658 10.4777 19.6118 8.63479 23.0372 8.63479C27.215 8.63479 30.35 11.262 30.35 16.9149V28.45H23.75V17.8154C23.75 15.3447 22.7484 13.4599 20.45 13.4599C18.6977 13.4599 17.8199 14.7929 17.3595 15.8919C17.1912 16.2856 17.15 16.8343 17.15 17.3845V28.45H10.55V15.1882Z" fill="black"/>
</svg>
