<svg width="29" height="28" viewBox="0 0 29 28" fill="none" xmlns="http://www.w3.org/2000/svg">
<path d="M25.35 0.5H3.65C1.945 0.5 0.550003 1.85 0.550003 3.5V24.5C0.550003 26.1515 1.945 27.5 3.65 27.5H25.35C27.055 27.5 28.45 26.1515 28.45 24.5V3.5C28.45 1.85 27.055 0.5 25.35 0.5ZM14.4752 22.2845C16.7519 22.2841 18.9353 21.4086 20.545 19.8505C22.1548 18.2924 23.0591 16.1793 23.0591 13.976C23.0591 13.469 22.9925 12.98 22.8995 12.5H25.35V23.324C25.35 23.4603 25.3222 23.5953 25.2681 23.7211C25.2141 23.847 25.1349 23.9613 25.0351 24.0575C24.9353 24.1536 24.8169 24.2298 24.6866 24.2815C24.5563 24.3333 24.4167 24.3596 24.2759 24.359H4.72415C4.58331 24.3596 4.44374 24.3333 4.31345 24.2815C4.18315 24.2298 4.0647 24.1536 3.96489 24.0575C3.86509 23.9613 3.78589 23.847 3.73186 23.7211C3.67782 23.5953 3.65 23.4603 3.65 23.324V12.5H6.05095C5.9564 12.98 5.88975 13.469 5.88975 13.976C5.89016 16.1794 6.79483 18.2925 8.40483 19.8506C10.0148 21.4086 12.1983 22.2841 14.4752 22.2845ZM9.11065 13.976C9.11065 13.2942 9.24941 12.6192 9.519 11.9893C9.7886 11.3594 10.1837 10.7871 10.6819 10.3051C11.18 9.82298 11.7714 9.44058 12.4223 9.17968C13.0731 8.91878 13.7707 8.7845 14.4752 8.7845C15.1797 8.7845 15.8773 8.91878 16.5281 9.17968C17.179 9.44058 17.7704 9.82298 18.2685 10.3051C18.7667 10.7871 19.1618 11.3594 19.4314 11.9893C19.701 12.6192 19.8398 13.2942 19.8398 13.976C19.8398 15.3529 19.2746 16.6733 18.2685 17.6469C17.2625 18.6205 15.898 19.1675 14.4752 19.1675C13.0524 19.1675 11.6879 18.6205 10.6819 17.6469C9.67585 16.6733 9.11065 15.3529 9.11065 13.976ZM24.2759 8H21.7726C21.4884 7.99921 21.216 7.88959 21.0151 7.6951C20.8141 7.50061 20.7008 7.23705 20.7 6.962V4.5365C20.7 3.9635 21.1805 3.5 21.7711 3.5H24.2743C24.8695 3.5 25.35 3.9635 25.35 4.5365V6.9605C25.35 7.532 24.8695 8 24.2759 8Z" fill="black"/>
</svg>
